<svg xmlns="http://www.w3.org/2000/svg" width="256" height="256" viewBox="0 0 256 256" version="1.1"><path d="" stroke="none" fill="#080404" fill-rule="evenodd"/><path d="M 59.675 32.250 C 58.340 34.038, 52.221 43.600, 46.075 53.500 C 39.930 63.400, 27.049 84.012, 17.451 99.304 C 7.853 114.596, 0 127.559, 0 128.111 C 0 128.662, 3.072 133.926, 6.827 139.807 C 10.582 145.688, 24.183 167.375, 37.052 188 C 49.920 208.625, 60.910 225.831, 61.474 226.235 C 62.038 226.639, 106.025 226.976, 159.223 226.985 L 255.946 227 256.223 177.250 C 256.375 149.887, 256.375 105.338, 256.223 78.250 L 255.945 29 159.023 29 L 62.102 29 59.675 32.250 M 67.805 42.745 C 64.890 46.124, 15 126.673, 15 128 C 15 129.327, 64.890 209.876, 67.805 213.255 C 69.231 214.908, 74.422 214.996, 156.410 214.755 L 243.500 214.500 243.500 128 L 243.500 41.500 156.410 41.245 C 74.422 41.004, 69.231 41.092, 67.805 42.745 M 105 81.500 L 100.551 86.033 121.517 107.017 L 142.482 128 121.517 148.983 L 100.551 169.967 105 174.500 L 109.449 179.034 130.483 158.017 L 151.517 137 172.498 157.998 L 193.478 178.996 197.978 174.496 L 202.478 169.996 181.498 148.998 L 160.518 128 181.498 107.002 L 202.478 86.004 197.978 81.504 L 193.478 77.004 172.498 98.002 L 151.517 119 130.483 97.983 L 109.449 76.966 105 81.500 M 0.158 128 C 0.158 129.375, 0.385 129.938, 0.662 129.250 C 0.940 128.563, 0.940 127.438, 0.662 126.750 C 0.385 126.063, 0.158 126.625, 0.158 128" stroke="none" fill="#F0F0F0" fill-rule="evenodd"/></svg>