<svg xmlns="http://www.w3.org/2000/svg" version="1.0" width="512.000000pt" height="512.000000pt" viewBox="0 0 512.000000 512.000000" preserveAspectRatio="xMidYMid meet">

<g transform="translate(0.000000,512.000000) scale(0.100000,-0.100000)" fill="#893eff" stroke="none">
<path d="M1611 4613 c-18 -9 -45 -34 -60 -56 -25 -39 -26 -45 -26 -191 0 -83 4 -163 9 -178 7 -24 5 -28 -10 -28 -32 0 -216 -96 -276 -144 -72 -57 -138 -140 -138 -172 0 -14 11 -36 25 -49 41 -42 67 -33 149 48 87 86 157 129 268 168 112 38 236 59 396 66 l132 6 0 -77 0 -76 -96 0 c-122 0 -281 -23 -375 -55 -141 -48 -217 -116 -343 -308 -43 -65 -102 -142 -131 -171 -128 -125 -308 -176 -520 -146 -75 11 -94 17 -117 41 -34 33 -35 57 -6 94 21 27 22 27 92 19 211 -26 338 -1 427 85 54 52 60 75 28 115 -27 34 -76 35 -116 2 -73 -61 -150 -73 -335 -52 -98 11 -149 -6 -207 -69 -52 -56 -67 -111 -52 -184 30 -150 136 -205 396 -205 164 0 229 13 352 75 115 57 185 125 292 283 51 74 110 154 132 179 63 73 175 119 341 141 l36 4 -5 -53 c-5 -46 -1 -63 21 -110 l28 -55 -26 -52 c-17 -33 -26 -69 -26 -98 0 -29 9 -65 26 -98 l26 -52 -28 -55 c-23 -48 -26 -64 -21 -115 l5 -58 -127 -4 c-146 -4 -174 -16 -210 -91 -18 -37 -21 -62 -21 -175 l0 -132 -696 0 c-781 0 -741 4 -792 -73 -26 -40 -27 -44 -27 -197 0 -153 1 -157 27 -197 39 -59 83 -76 214 -81 l110 -4 -4 -54 c-4 -44 0 -64 23 -109 l27 -55 -26 -52 c-34 -68 -34 -128 0 -196 l26 -52 -26 -52 c-34 -68 -34 -128 0 -196 l26 -52 -28 -55 c-23 -48 -26 -64 -21 -115 l5 -58 -127 -4 c-146 -4 -174 -16 -211 -93 -20 -40 -21 -57 -18 -188 3 -136 4 -146 30 -184 14 -22 43 -48 65 -59 37 -19 98 -19 2463 -19 2365 0 2426 0 2463 19 22 11 51 37 65 59 26 38 27 48 30 184 3 131 2 148 -18 188 -37 77 -65 89 -211 93 l-127 4 5 58 c5 51 2 67 -21 115 l-28 55 26 52 c34 68 34 128 0 196 l-26 52 26 52 c34 68 34 128 0 196 l-26 52 27 55 c23 45 27 65 23 109 l-4 54 110 4 c131 5 175 22 214 81 l27 41 3 344 c3 333 2 345 -18 388 -37 76 -65 88 -211 92 l-127 4 5 58 c5 51 2 67 -21 115 l-28 55 26 52 c34 68 34 128 0 196 l-26 52 26 52 c34 69 34 128 0 197 -31 61 -89 108 -146 117 l-38 7 0 72 0 73 213 4 c242 4 268 10 315 81 26 40 27 44 27 197 0 153 -1 157 -27 197 -52 79 41 73 -1236 73 l-1141 0 -20 -26 c-27 -35 -26 -57 3 -91 l24 -28 1124 -5 1123 -5 3 -110 c2 -95 0 -111 -15 -122 -25 -19 -3241 -19 -3266 0 -15 11 -17 27 -15 122 l3 110 378 5 379 5 19 24 c23 28 24 69 3 99 l-15 22 -397 0 c-349 0 -401 -2 -431 -17z m2799 -608 l0 -75 -1090 0 -1090 0 0 75 0 75 1090 0 1090 0 0 -75z m190 -247 c39 -42 19 -101 -41 -118 -46 -13 -2432 -13 -2478 0 -60 17 -80 76 -41 118 l21 22 1259 0 1259 0 21 -22z m0 -300 c39 -42 19 -101 -41 -118 -19 -6 -167 -10 -331 -10 l-297 0 -20 -26 c-27 -35 -26 -57 3 -91 l24 -28 326 -5 c310 -5 326 -6 340 -25 34 -44 12 -99 -45 -115 -46 -13 -2432 -13 -2478 0 -57 16 -79 71 -45 115 15 20 30 20 810 25 l796 5 24 28 c29 34 30 56 3 91 l-20 26 -767 0 c-462 0 -781 4 -801 10 -60 17 -80 76 -41 118 l21 22 1259 0 1259 0 21 -22z m368 -705 l3 -123 -1651 0 -1650 0 0 118 c0 65 3 122 7 125 3 4 745 6 1647 5 l1641 -3 3 -122z m-1520 -388 c2 -95 0 -111 -15 -122 -22 -17 -3233 -19 -3264 -3 -17 10 -19 22 -19 119 0 59 3 111 7 114 3 4 745 6 1647 5 l1641 -3 3 -110z m1522 0 c0 -103 -2 -115 -19 -125 -13 -6 -246 -10 -685 -10 l-666 0 0 125 0 125 685 0 685 0 0 -115z m-1890 -307 c39 -42 19 -101 -41 -118 -46 -13 -2432 -13 -2478 0 -60 17 -80 76 -41 118 l21 22 1259 0 1259 0 21 -22z m1520 0 c39 -42 19 -101 -41 -118 -20 -6 -294 -10 -674 -10 l-640 0 0 75 0 75 667 0 667 0 21 -22z m-1520 -300 c39 -42 19 -101 -41 -118 -46 -13 -2432 -13 -2478 0 -60 17 -80 76 -41 118 l21 22 1259 0 1259 0 21 -22z m1520 0 c39 -42 19 -101 -41 -118 -20 -6 -294 -10 -674 -10 l-640 0 0 75 0 75 667 0 667 0 21 -22z m-1520 -300 c39 -42 19 -101 -41 -118 -46 -13 -2432 -13 -2478 0 -60 17 -80 76 -41 118 l21 22 1259 0 1259 0 21 -22z m1520 0 c39 -42 19 -101 -41 -118 -20 -6 -294 -10 -674 -10 l-640 0 0 75 0 75 667 0 667 0 21 -22z m-1520 -300 c39 -42 19 -101 -41 -118 -19 -6 -157 -10 -308 -10 -241 0 -277 -2 -293 -17 -26 -23 -24 -84 3 -109 20 -18 47 -19 513 -24 l491 -5 3 -110 c2 -95 0 -111 -15 -122 -25 -19 -3241 -19 -3266 0 -15 11 -17 27 -15 122 l3 110 1008 5 1009 5 19 24 c23 28 24 69 3 99 l-15 22 -792 0 c-478 0 -805 4 -826 10 -60 17 -80 76 -41 118 l21 22 1259 0 1259 0 21 -22z m1520 0 c39 -42 19 -101 -41 -118 -20 -6 -294 -10 -674 -10 l-640 0 0 75 0 75 667 0 667 0 21 -22z m368 -393 c2 -95 0 -111 -15 -122 -13 -10 -163 -13 -685 -13 l-668 0 0 125 0 125 683 -2 682 -3 3 -110z" fill="#893eff"/>
</g>
</svg>